<svg id="visual" viewBox="0 0 1024 800" width="1024" height="800" xmlns="http://www.w3.org/2000/svg" xmlns:xlink="http://www.w3.org/1999/xlink" version="1.1"><rect x="0" y="0" width="1024" height="800" fill="#E1FAF9"></rect><path d="M0 496L34.2 514.2C68.3 532.3 136.7 568.7 205 558.8C273.3 549 341.7 493 409.8 458.7C478 424.3 546 411.7 614.2 436C682.3 460.3 750.7 521.7 819 540.3C887.3 559 955.7 535 989.8 523L1024 511L1024 801L989.8 801C955.7 801 887.3 801 819 801C750.7 801 682.3 801 614.2 801C546 801 478 801 409.8 801C341.7 801 273.3 801 205 801C136.7 801 68.3 801 34.2 801L0 801Z" fill="#0066FF" stroke-linecap="round" stroke-linejoin="miter"></path></svg>